<?xml version="1.0" standalone="no"?><!DOCTYPE svg PUBLIC "-//W3C//DTD SVG 1.1//EN" "http://www.w3.org/Graphics/SVG/1.1/DTD/svg11.dtd"><svg t="1587699951950" class="icon" viewBox="0 0 1024 1024" version="1.1" xmlns="http://www.w3.org/2000/svg" p-id="2868" width="128" height="128" xmlns:xlink="http://www.w3.org/1999/xlink"><defs><style type="text/css"></style></defs><path d="M784 902.4c9.6 19.2 6.4 41.6-12.8 54.4-19.2 9.6-41.6 3.2-51.2-12.8-9.6-19.2-6.4-41.6 12.8-54.4 16-12.8 38.4-8 51.2 12.8z m-233.6 81.6c0 22.4-16 38.4-38.4 38.4s-38.4-16-38.4-38.4V960c0-22.4 19.2-38.4 41.6-38.4 19.2 0 35.2 16 38.4 38.4v25.6h-3.2z m-240-43.2c-9.6 19.2-35.2 25.6-54.4 16-19.2-9.6-25.6-35.2-16-51.2l28.8-51.2c9.6-19.2 35.2-25.6 54.4-16s25.6 35.2 12.8 54.4l-25.6 48zM121.6 784c-19.2 9.6-41.6 3.2-54.4-16-9.6-19.2-6.4-41.6 12.8-54.4l76.8-44.8c19.2-9.6 41.6-3.2 54.4 16 9.6 19.2 3.2 41.6-16 54.4L121.6 784zM38.4 552c-22.4 0-38.4-16-38.4-38.4s16-38.4 38.4-38.4H160c22.4 0 38.4 19.2 38.4 38.4 0 22.4-16 38.4-38.4 38.4H38.4z m44.8-241.6c-19.2-9.6-25.6-35.2-16-51.2 9.6-19.2 35.2-25.6 54.4-16L256 320c19.2 9.6 25.6 35.2 16 54.4s-35.2 25.6-54.4 16l-134.4-80z m160-185.6l92.8 160c9.6 19.2 35.2 25.6 54.4 12.8s25.6-35.2 12.8-54.4l-92.8-160c-12.8-19.2-35.2-22.4-54.4-12.8-16 12.8-22.4 33.6-12.8 54.4z m230.4-84.8c0-22.4 16-38.4 38.4-38.4s38.4 19.2 38.4 38.4V224c0 22.4-19.2 38.4-38.4 38.4-22.4 0-38.4-19.2-38.4-38.4V40z m240 43.2c9.6-19.2 35.2-25.6 54.4-16 19.2 9.6 25.6 35.2 16 51.2l-92.8 160c-9.6 19.2-35.2 25.6-54.4 16-19.2-9.6-25.6-35.2-12.8-54.4l89.6-156.8z m188.8 160l-160 92.8c-19.2 9.6-25.6 35.2-16 54.4 12.8 19.2 35.2 25.6 54.4 12.8l160-92.8c19.2-9.6 25.6-35.2 12.8-54.4-9.6-16-32-25.6-51.2-12.8z m83.2 228.8c22.4 0 38.4 16 38.4 38.4s-16 38.4-38.4 38.4H800c-22.4 0-38.4-19.2-38.4-38.4 0-22.4 19.2-38.4 38.4-38.4h185.6z" fill="#888888" p-id="2869"></path></svg>